<?xml version="1.0" standalone="no"?>
<!DOCTYPE svg PUBLIC "-//W3C//DTD SVG 20010904//EN"
 "http://www.w3.org/TR/2001/REC-SVG-20010904/DTD/svg10.dtd">
<svg version="1.0" xmlns="http://www.w3.org/2000/svg"
 width="880.000000pt" height="880.000000pt" viewBox="0 0 880.000000 880.000000"
 preserveAspectRatio="xMidYMid meet">
<metadata>
Created by potrace 1.14, written by Peter Selinger 2001-2017
</metadata>
<g transform="translate(0.000000,880.000000) scale(0.100000,-0.100000)"
fill="#000000" stroke="none">
<path d="M4148 8155 c-2 -1 -43 -5 -93 -9 -388 -28 -787 -126 -1150 -283 -85
-36 -258 -122 -270 -134 -5 -5 -17 -9 -26 -9 -10 0 -19 -4 -21 -8 -1 -5 -30
-23 -63 -42 -447 -252 -963 -744 -1271 -1215 -44 -67 -60 -94 -70 -115 -4 -8
-13 -22 -20 -30 -25 -30 -190 -337 -199 -370 0 -3 -11 -26 -22 -53 -90 -196
-209 -602 -238 -807 -4 -24 -8 -47 -10 -50 -1 -3 -6 -36 -10 -73 -3 -37 -8
-76 -10 -86 -27 -139 -27 -761 0 -941 2 -14 7 -45 10 -70 38 -285 141 -667
234 -875 5 -11 20 -45 32 -75 78 -183 234 -460 365 -645 42 -60 80 -112 83
-115 4 -3 22 -25 41 -50 46 -59 225 -263 282 -320 432 -436 954 -764 1488
-936 128 -42 398 -110 464 -119 27 -3 53 -8 56 -10 10 -6 229 -34 330 -43 111
-9 570 -9 686 0 81 7 196 21 279 34 148 23 449 95 487 115 10 5 18 8 18 5 0
-5 162 50 260 87 327 126 713 358 1010 606 104 87 135 116 275 256 405 406
736 944 896 1455 18 58 34 110 35 115 1 6 16 62 32 125 17 63 36 142 42 175 5
33 12 69 14 80 10 58 16 95 21 140 3 28 8 61 10 75 3 14 7 54 10 90 21 245 21
580 0 760 -3 25 -8 70 -11 100 -6 61 -6 66 -29 200 -9 52 -18 97 -20 100 -2 3
-6 23 -9 45 -11 67 -87 348 -106 390 -5 11 -12 31 -16 45 -37 136 -195 472
-307 655 -167 271 -352 503 -591 740 -164 163 -200 196 -316 289 -252 203
-530 376 -780 486 -95 42 -141 62 -150 65 -3 1 -12 5 -20 8 -51 22 -331 113
-367 120 -10 2 -25 7 -33 10 -8 3 -26 7 -40 10 -14 3 -81 16 -150 30 -69 14
-147 28 -173 32 -27 3 -59 8 -70 11 -12 2 -42 6 -67 9 -25 3 -65 8 -90 11 -46
5 -636 14 -642 9z"/>
</g>
</svg>
