<?xml version="1.0" encoding="utf-8"?>
<!-- Generator: Adobe Illustrator 24.2.3, SVG Export Plug-In . SVG Version: 6.00 Build 0)  -->
<svg version="1.1" id="Layer_1" xmlns="http://www.w3.org/2000/svg" xmlns:xlink="http://www.w3.org/1999/xlink" x="0px" y="0px"
	 viewBox="0 0 52 58" style="enable-background:new 0 0 52 58;" xml:space="preserve">
<style type="text/css">
	.st0{fill:#020203;}
	.st1{fill:none;stroke:#E64111;stroke-width:0.2835;stroke-miterlimit:10;}
	.st2{fill:#001689;}
	.st3{fill:none;stroke:#030404;stroke-width:17.0079;stroke-miterlimit:10;}
	.st4{fill:none;stroke:#030404;stroke-width:2.8346;stroke-miterlimit:10;}
	.st5{fill:none;stroke:#FFFFFF;stroke-width:2.8346;stroke-miterlimit:10;}
	.st6{fill:none;stroke:#FFFFFF;stroke-width:2.8346;stroke-linejoin:round;stroke-miterlimit:10;}
	.st7{fill:none;stroke:#FFFFFF;stroke-width:1.7858;stroke-miterlimit:10;}
	.st8{fill:none;stroke:#FFFFFF;stroke-width:1.4882;stroke-miterlimit:10;}
	.st9{fill:none;}
	.st10{fill:#8A6E4B;}
	.st11{fill:#FFFFFF;}
</style>
<g>
	<path class="st0" d="M52,26.1c0-14.4-11.6-26-26-26S0,11.8,0,26.1c0,7.2,2.9,13.7,7.6,18.4l-4.1,4.1c6.2,6.2,14.3,9.2,22.5,9.2
		s16.3-3.1,22.5-9.2l0,0l-4.1-4.1C49.1,39.8,52,33.3,52,26.1z"/>
	<g>
		<path class="st1" d="M21.7,51.3"/>
	</g>
	<path class="st2" d="M42.4,26.5c0.2-9-7-16.5-16.1-16.7c-2.3,0-4.6,0.4-6.6,1.3c0,0,0,0-0.1,0l-1.5,0.6l1.5,3.6
		c0.5-0.3,1-0.5,1.5-0.7L26,26.1l4.8,11.6c-0.5,0.2-1,0.4-1.6,0.5l1.5,3.7l1.5-0.6l0.2-0.1v0C38.2,38.7,42.3,33.1,42.4,26.5z"/>
	<g>
		<path class="st3" d="M31.9,37.3"/>
	</g>
	<g>
		<path class="st3" d="M22.3,15.3"/>
	</g>
	<g>
		<path class="st4" d="M21.8,14.7"/>
	</g>
	<g>
		<path class="st5" d="M19.8,27.7"/>
	</g>
	<g>
		<path class="st6" d="M21.9,35.8"/>
	</g>
	<g>
		<path class="st7" d="M32.7,41.9"/>
	</g>
	<g>
		<path class="st8" d="M20.5,12.5"/>
	</g>
	<path class="st9" d="M10.6,31.1c-0.5-1.4-0.7-2.9-0.8-4.5c-0.1-4.3,1.4-8.4,4.4-11.6c0.1-0.1,0.2-0.2,0.3-0.3
		c0.1-0.1,0.1-0.2,0-0.2c-0.1-0.1-0.2-0.1-0.2,0c-0.1,0.1-0.2,0.2-0.3,0.3c-3,3.2-4.6,7.4-4.5,11.8c0,1.6,0.3,3.1,0.8,4.6
		C10.4,31.1,10.5,31.1,10.6,31.1z"/>
	<path class="st9" d="M26,42.3c-4.1,0-8.1-1.6-11.1-4.4c-1.4-1.3-2.5-2.8-3.3-4.4c-0.1,0.1-0.2,0.1-0.3,0.1c0.8,1.7,2,3.2,3.3,4.5
		c3.1,2.9,7.1,4.5,11.3,4.5l0,0c0.1,0,0.2-0.1,0.2-0.2C26.2,42.4,26.1,42.3,26,42.3z"/>
	<path class="st10" d="M32.3,41.3l-1.5,0.6l-1.5-3.7c-1,0.3-2.1,0.4-3.2,0.4c-6.9,0-12.5-5.6-12.5-12.5c0-4.5,2.4-8.6,6.3-10.8
		l-1.5-3.6l1.5-0.6c0,0,0,0,0.1,0l-1.5-3.6C10.8,10.6,5.8,18,5.8,26.2C5.8,37.3,15,46.4,26,46.4c2.6,0,5.3-0.5,7.7-1.5L32.3,41.3z
		 M14,14.8c0.1-0.1,0.2-0.2,0.3-0.3c0.1-0.1,0.2-0.1,0.2,0c0.1,0.1,0.1,0.2,0,0.2c-0.1,0.1-0.2,0.2-0.3,0.3c-3,3.1-4.5,7.3-4.4,11.6
		c0,1.5,0.3,3.1,0.8,4.5c-0.1,0-0.2,0.1-0.3,0.1c-0.5-1.5-0.7-3-0.8-4.6C9.4,22.2,11,18,14,14.8z M10.5,33.4
		c-0.3-0.1-0.5-0.3-0.6-0.6c-0.1-0.3-0.1-0.6,0-0.9c0.2-0.4,0.6-0.7,1-0.7c0.2,0,0.3,0,0.4,0.1c0.3,0.1,0.5,0.3,0.6,0.6
		c0.1,0.3,0.1,0.6,0,0.9c-0.2,0.4-0.6,0.7-1,0.7C10.8,33.5,10.6,33.5,10.5,33.4z M26,42.7L26,42.7c-4.2,0-8.2-1.6-11.3-4.5
		c-1.4-1.3-2.5-2.8-3.3-4.5c0.1,0,0.2-0.1,0.3-0.1c0.8,1.6,1.9,3.1,3.3,4.4c3,2.8,6.9,4.4,11.1,4.4c0.1,0,0.2,0.1,0.2,0.2
		C26.2,42.6,26.1,42.7,26,42.7z"/>
	<path class="st2" d="M12,32.8c0.1-0.3,0.1-0.6,0-0.9c-0.1-0.3-0.3-0.5-0.6-0.6c-0.1-0.1-0.3-0.1-0.4-0.1c-0.5,0-0.9,0.3-1,0.7
		c-0.1,0.3-0.1,0.6,0,0.9c0.1,0.3,0.3,0.5,0.6,0.6c0.1,0.1,0.3,0.1,0.4,0.1C11.4,33.5,11.8,33.2,12,32.8z"/>
	<g>
		<path class="st7" d="M32.7,42.1"/>
	</g>
	<g>
		<path class="st8" d="M39.5,20.9"/>
	</g>
	<g>
		<g>
			<path class="st0" d="M20.3,12.1c0,0,0.1,0,0.1,0.1C20.4,12.1,20.3,12.1,20.3,12.1z"/>
		</g>
	</g>
	<g>
		<g>
			<path class="st0" d="M20.3,12.1L20.3,12.1L20.3,12.1z"/>
		</g>
	</g>
	<g>
		<path class="st5" d="M27.2,27.3"/>
	</g>
	<g>
		<path class="st6" d="M23.1,34.6"/>
	</g>
	<g>
		<circle class="st10" cx="35.3" cy="9.6" r="0.6"/>
	</g>
	<path class="st11" d="M35.8,19.1c-0.3,0-3,0.4-3.7,0.9c-0.7,0.5-1.9,2.4-2,2.5L27,24.2l0,0l2.8-6.7c0,0,0,0,0,0l0.7-1.6
		c0,0,0,0,0,0c0.4-1.3,0.1-4.1,0.1-4.4c0-0.1-0.1-0.2-0.2-0.2c-0.1,0-0.2,0-0.2,0.1c0,0.1-1.1,2.4-1.2,3.2c-0.1,0.8,0.4,2.5,0.5,2.8
		L28,20.9c0.1-0.8,0-1.6,0-2c0-0.1-0.1-0.2-0.2-0.2c-0.1,0-0.2,0-0.2,0.1s-1.1,1.8-1.2,2.6c-0.1,0.8,0.3,2.3,0.4,2.4l-1.6,3.9
		c0.1-1.2,0-2.6,0-2.8c0-0.1-0.1-0.2-0.2-0.2c-0.1,0-0.2,0-0.2,0.1c-0.1,0.1-1.2,2.3-1.3,3.1c-0.1,0.7,0.3,2.3,0.4,2.9l-4.9,11.9
		c0,0.1,0,0.2,0.1,0.3c0,0,0.1,0,0.1,0c0.1,0,0.1,0,0.2-0.1l3.7-8.8c0.3-0.2,2.1-1.5,2.4-1.9c0.4-0.7,1.2-3.1,1.2-3.2
		c0-0.1,0-0.2-0.1-0.2s-0.2,0-0.2,0c-0.2,0.2-1.1,1-1.8,1.9l0.5-1.2c0,0,0,0,0,0l1.9-4.6h0l0,0c0.3,0,1.1,0.1,1.8,0.1
		c0.4,0,0.9,0,1.1-0.1c0.8-0.2,3.2-1.4,3.4-1.4c0.1,0,0.1-0.1,0.1-0.2c0-0.1-0.1-0.2-0.2-0.2h0c0,0-0.1,0-0.2,0
		c-0.9,0-2.1,0.1-3.1,0.2l2.4-1.3c0,0,0,0,0,0l0,0c1.3-0.7,3.7-2.3,3.8-2.4c0.1-0.1,0.1-0.1,0.1-0.2C35.9,19.2,35.9,19.1,35.8,19.1z
		 M26.7,21.6c0.1-0.5,0.5-1.4,0.9-2c0,0.7,0,1.8-0.3,2.6l-0.4,1C26.8,22.8,26.7,22,26.7,21.6z M23.8,28.1c0.1-0.5,0.6-1.6,1-2.4
		c0,1,0,2.6-0.3,3.5l-0.4,1C23.9,29.6,23.7,28.6,23.8,28.1z M25.9,29.6c-0.3,0.8-0.7,2-0.9,2.4c-0.1,0.2-1.1,0.9-1.8,1.4l0.4-1
		C24,31.6,25.2,30.3,25.9,29.6z M29.6,24.4c-0.5,0.1-1.5,0.1-2.2,0l1.2-0.6c0.8-0.4,2.4-0.5,3.4-0.5C31.3,23.7,30.1,24.2,29.6,24.4z
		 M29.3,14.6c0.1-0.5,0.6-1.7,0.9-2.4c0.1,0.9,0.1,2.6-0.1,3.5l-0.4,1.1C29.5,16.1,29.3,15.1,29.3,14.6z M32,21.5l-1.1,0.6
		c0.4-0.6,1.1-1.5,1.4-1.7c0.4-0.3,1.7-0.5,2.6-0.7C34.1,20.2,32.8,21.1,32,21.5z"/>
	<path class="st11" d="M30.6,18c-0.6,0.2-0.9,0.8-0.8,1.3c0.1,0.5,0.6,0.7,1.2,0.5c0.6-0.2,0.9-0.8,0.8-1.3
		C31.7,18,31.2,17.8,30.6,18z"/>
	<path class="st11" d="M21.8,32.5c0.5,0.2,1-0.2,1.1-0.8c0.1-0.6-0.2-1.2-0.7-1.4c-0.5-0.2-1,0.2-1.1,0.8
		C21,31.7,21.3,32.3,21.8,32.5z"/>
	<path class="st11" d="M27.6,25.4c-0.6,0.2-1,0.7-1,1.3s0.6,0.8,1.2,0.6c0.6-0.2,1-0.7,1-1.3C28.7,25.5,28.2,25.2,27.6,25.4z"/>
	<polygon class="st11" points="6.1,38.9 7.4,37.5 7.1,37 5.3,37.5 6.9,36.6 6.6,36.2 4.5,37.4 4.9,38.1 6.7,37.6 5.4,39 5.8,39.6 
		7.9,38.4 7.7,37.9 	"/>
	<path class="st11" d="M6.3,35.5l-0.5,0.1l-0.4-0.8l0.4-0.3L5.6,34l-2,1.7l0.3,0.7L6.5,36L6.3,35.5z M4.1,35.8l1-0.8l0.3,0.6
		L4.1,35.8z"/>
	<path class="st11" d="M5.4,33.3l-0.9,0.3L4.3,33c-0.1-0.2,0-0.3,0.2-0.4c0.2-0.1,0.5-0.1,0.7-0.3l-0.2-0.5c0,0-0.1,0.1-0.2,0.1
		c-0.1,0.1-0.2,0.1-0.5,0.2c-0.2,0.1-0.3,0.2-0.3,0.5c-0.2-0.2-0.4-0.3-0.7-0.2c-0.3,0.1-0.6,0.5-0.4,1l0.3,1.1l2.4-0.8L5.4,33.3z
		 M3.4,33.9l-0.2-0.5c-0.1-0.2,0-0.4,0.2-0.5c0.2-0.1,0.4,0.1,0.5,0.3l0.1,0.4L3.4,33.9z"/>
	<path class="st11" d="M3.6,31.7c0.3-0.5-0.1-1.2,0.3-1.3c0.3-0.1,0.4,0.2,0.4,0.4c0.1,0.3,0,0.5-0.3,0.6l0.1,0.5
		c0.5-0.1,0.7-0.6,0.6-1.1c-0.1-0.6-0.5-0.9-1-0.8c-0.3,0.1-0.4,0.3-0.5,0.5c-0.1,0.5,0.1,1.1-0.3,1.1c-0.2,0-0.3-0.1-0.4-0.4
		c-0.1-0.4,0.1-0.5,0.3-0.5l-0.1-0.5c-0.6,0.2-0.7,0.6-0.6,1.1c0.1,0.5,0.4,0.8,0.9,0.7C3.4,32,3.5,31.8,3.6,31.7z"/>
	<polygon class="st11" points="4.2,27.3 2.4,27.3 4.2,26.7 4.2,26.2 2.3,25.7 4.2,25.7 4.2,25.2 1.7,25.2 1.7,26 3.5,26.5 1.7,27 
		1.7,27.8 4.2,27.8 	"/>
	
		<rect x="2.8" y="23.2" transform="matrix(7.219929e-02 -0.9974 0.9974 7.219929e-02 -21.5862 25.695)" class="st11" width="0.5" height="2.5"/>
	<path class="st11" d="M2.5,23.7c0.2,0,0.4,0,0.5-0.1c0.4-0.3,0.3-1.2,0.7-1.1c0.3,0,0.3,0.3,0.3,0.5c0,0.3-0.2,0.5-0.5,0.4
		l-0.1,0.5c0.5,0.1,0.9-0.3,1-0.8c0.1-0.6-0.1-1-0.7-1.1c-0.3,0-0.5,0.1-0.6,0.3c-0.3,0.4-0.3,1-0.6,1c-0.2,0-0.3-0.2-0.2-0.5
		c0.1-0.4,0.3-0.4,0.4-0.4l0.1-0.5c-0.6-0.1-0.8,0.4-0.9,0.9C1.9,23.1,2,23.6,2.5,23.7z"/>
	<path class="st11" d="M2.9,21.3c0.2,0.1,0.4,0,0.5-0.1c0.4-0.3,0.4-1.2,0.8-1.1c0.3,0.1,0.3,0.4,0.2,0.6c-0.1,0.3-0.2,0.4-0.5,0.4
		l-0.1,0.5c0.5,0.1,0.9-0.2,1-0.7c0.2-0.6,0-1-0.5-1.2c-0.3-0.1-0.5,0.1-0.6,0.2c-0.3,0.4-0.4,1-0.7,0.9c-0.2,0-0.3-0.2-0.2-0.5
		C2.9,20,3.1,20,3.2,20l0.1-0.5c-0.6-0.1-0.9,0.3-1,0.8C2.3,20.7,2.4,21.2,2.9,21.3z"/>
	<rect x="3.8" y="17.7" transform="matrix(0.3099 -0.9508 0.9508 0.3099 -15.2296 16.989)" class="st11" width="0.5" height="2.5"/>
	<path class="st11" d="M4.3,18.3c0.8,0.3,1.4,0,1.6-0.5c0.2-0.6,0-1.2-0.8-1.5c-0.8-0.3-1.4,0-1.6,0.5C3.3,17.4,3.5,18,4.3,18.3z
		 M3.9,17c0.1-0.4,0.5-0.4,1-0.2c0.5,0.2,0.7,0.5,0.5,0.9C5.3,18,5,18,4.5,17.8C4,17.6,3.8,17.3,3.9,17z"/>
	<polygon class="st11" points="6.7,16 5.1,15.2 7.1,15.2 7.4,14.7 5.2,13.5 5,13.9 6.5,14.7 4.6,14.7 4.3,15.2 6.4,16.5 	"/>
	<path class="st11" d="M8.6,10.9c-0.4,0.2-0.8,0.8-1.1,0.5c-0.1-0.1-0.1-0.3,0-0.5c0.3-0.3,0.5-0.2,0.6-0.1l0.3-0.4
		C8,10,7.6,10.3,7.2,10.6c-0.3,0.4-0.4,0.9,0,1.2C7.4,12,7.6,12,7.7,12c0.5-0.1,0.9-0.9,1.2-0.6c0.2,0.2,0.1,0.4-0.1,0.6
		c-0.2,0.2-0.4,0.3-0.6,0.1L8,12.5c0.4,0.3,0.9,0.2,1.3-0.2c0.4-0.5,0.4-1,0-1.3C9,10.8,8.8,10.8,8.6,10.9z"/>
	<rect x="9.1" y="9" transform="matrix(0.6912 -0.7226 0.7226 0.6912 -4.49 9.9053)" class="st11" width="0.5" height="2.5"/>
	<polygon class="st11" points="10.4,7.5 11.2,9.2 9.6,8.2 9,8.7 10.7,10.6 11.1,10.2 9.8,8.8 11.5,9.9 11.8,9.6 11,7.8 12.2,9.2 
		12.6,8.9 11,7 	"/>
	<path class="st11" d="M13.1,5.5l-0.4,0.3l0.9,1.3c0.2,0.3,0.1,0.5-0.1,0.7C13.3,8,13,8,12.8,7.7l-0.9-1.3l-0.4,0.3l0.9,1.3
		c0.4,0.6,0.9,0.6,1.4,0.2c0.5-0.3,0.7-0.8,0.3-1.4L13.1,5.5z"/>
	<polygon class="st11" points="15.1,6.8 14.1,4.9 13.7,5.2 14.9,7.4 16.4,6.6 16.2,6.2 	"/>
	<path class="st11" d="M16.2,3.9l0.3,2.6L17,6.3l-0.1-0.5l0.8-0.3L18,5.8l0.5-0.2l-1.7-2L16.2,3.9z M16.8,5.3l-0.2-1.2l0.8,1
		L16.8,5.3z"/>
	<polygon class="st11" points="18.5,3.5 19.1,5.4 19.6,5.3 19,3.3 19.7,3.1 19.5,2.7 17.7,3.3 17.8,3.7 	"/>
	<rect x="20.3" y="2.5" transform="matrix(0.9718 -0.2359 0.2359 0.9718 -0.3032 4.9522)" class="st11" width="0.5" height="2.5"/>
	<path class="st11" d="M22.5,4.6c0.6-0.1,1-0.6,0.9-1.4c-0.1-0.8-0.7-1.2-1.3-1.1c-0.6,0.1-1,0.7-0.9,1.5
		C21.3,4.4,21.9,4.7,22.5,4.6z M22.2,2.5c0.4-0.1,0.7,0.2,0.7,0.7c0.1,0.5-0.1,0.9-0.5,0.9S21.8,4,21.7,3.5
		C21.6,2.9,21.8,2.6,22.2,2.5z"/>
	<polygon class="st11" points="24.4,4.4 24.4,2.6 25.4,4.3 26,4.3 25.8,1.8 25.4,1.8 25.5,3.6 24.4,1.9 23.8,1.9 23.9,4.4 	"/>
	<rect x="28.3" y="3" transform="matrix(0.1083 -0.9941 0.9941 0.1083 22.2398 31.2283)" class="st11" width="0.5" height="0.5"/>
	<polygon class="st11" points="31.7,3.3 32.2,5.2 32.7,5.4 33.4,3 32.9,2.8 32.5,4.5 32,2.6 31.4,2.4 30.8,4.8 31.3,5 	"/>
	<polygon class="st11" points="34.8,6.1 34.9,5.7 33.7,5.3 34,4.7 35,5.1 35.2,4.7 34.1,4.3 34.3,3.8 35.5,4.2 35.6,3.8 34,3.2 
		33.1,5.5 	"/>
	<path class="st11" d="M36.6,5.6l-0.2,0.4L37,6.2c-0.1,0.2-0.3,0.4-0.8,0.2c-0.4-0.2-0.4-0.7-0.2-1c0.3-0.5,0.6-0.7,1-0.5
		c0.3,0.2,0.3,0.4,0.2,0.6l0.5,0.2c0.1-0.3,0.2-0.9-0.5-1.2c-0.8-0.4-1.4,0.1-1.6,0.6c-0.3,0.6-0.3,1.3,0.4,1.6
		c0.2,0.1,0.5,0.1,0.7,0L36.6,7L37,7.3L37.6,6L36.6,5.6z"/>
	<polygon class="st11" points="38.8,6 39.8,6.7 40.1,6.3 38.6,5.4 37.2,7.4 38.7,8.4 39,8 37.9,7.3 38.2,6.9 39.2,7.5 39.4,7.1 
		38.5,6.5 	"/>
	<polygon class="st11" points="41.8,7.7 40,8.9 40.9,6.9 40.4,6.6 39.5,9 40,9.4 42.2,8 	"/>
	<path class="st11" d="M44.6,10.5l-0.7-0.8L42,11.3l0.6,0.7c0.2,0.3,0.6,0.4,0.9,0.4c0.3,0,0.6-0.2,0.9-0.4
		C45,11.5,45,10.9,44.6,10.5z M42.9,11.7l-0.3-0.3l1.3-1.1l0.3,0.3c0.2,0.2,0.3,0.6-0.2,1C43.5,12.2,43.1,12,42.9,11.7z"/>
	<polygon class="st11" points="44.9,14.4 44.2,13.3 44.7,13 45.3,13.9 45.7,13.7 45,12.7 45.5,12.4 46.2,13.4 46.6,13.2 45.6,11.8 
		43.6,13.2 44.5,14.6 	"/>
	<path class="st11" d="M45.9,14.5c-0.1,0.5,0.5,1.2,0.1,1.4c-0.3,0.1-0.4-0.1-0.5-0.3c-0.2-0.3-0.1-0.5,0.1-0.6l-0.2-0.4
		c-0.5,0.3-0.5,0.8-0.3,1.2c0.3,0.5,0.7,0.8,1.2,0.5c0.3-0.2,0.3-0.4,0.3-0.6c0-0.5-0.4-1-0.1-1.2c0.2-0.1,0.3,0,0.5,0.2
		c0.2,0.4,0,0.5-0.1,0.6l0.2,0.4c0.5-0.3,0.4-0.8,0.2-1.2c-0.2-0.4-0.7-0.7-1.1-0.5C46.1,14.1,46,14.3,45.9,14.5z"/>
	<polygon class="st11" points="46.4,18.5 46.8,18.3 46.3,17.1 46.9,16.9 47.3,17.9 47.7,17.8 47.3,16.7 47.8,16.5 48.3,17.6 
		48.7,17.5 48,15.9 45.7,16.9 	"/>
	<path class="st11" d="M46.7,19.3l0.9-0.3l0.2,0.5c0.1,0.2,0,0.3-0.2,0.4c-0.2,0.1-0.5,0.1-0.7,0.3l0.2,0.5c0,0,0.1-0.1,0.2-0.1
		c0.1-0.1,0.2-0.1,0.5-0.2c0.2-0.1,0.3-0.2,0.3-0.5c0.2,0.2,0.4,0.3,0.7,0.2c0.3-0.1,0.6-0.4,0.4-1l-0.3-1.1l-2.4,0.7L46.7,19.3z
		 M48.7,18.7l0.2,0.5c0.1,0.2,0,0.4-0.2,0.5c-0.2,0.1-0.4-0.1-0.5-0.3L48,18.9L48.7,18.7z"/>
	<polygon class="st11" points="49.3,21.1 47.3,21.5 47.4,22 49.4,21.6 49.6,22.3 50,22.2 49.6,20.3 49.2,20.4 	"/>
	
		<rect x="48.8" y="24.7" transform="matrix(0.9987 -5.070071e-02 5.070071e-02 0.9987 -1.2016 2.5172)" class="st11" width="0.5" height="0.5"/>
	
		<rect x="48.7" y="26.6" transform="matrix(7.229877e-02 -0.9974 0.9974 7.229877e-02 17.6994 74.6624)" class="st11" width="0.5" height="2.5"/>
	<path class="st11" d="M49.5,28.6c-0.2,0-0.4,0-0.5,0.1c-0.4,0.3-0.3,1.2-0.7,1.1c-0.3,0-0.3-0.3-0.3-0.5c0-0.3,0.2-0.5,0.5-0.4
		l0.1-0.5c-0.5-0.1-0.9,0.3-1,0.8c-0.1,0.6,0.1,1,0.7,1.1c0.3,0,0.5-0.1,0.6-0.3c0.3-0.4,0.3-1,0.6-1c0.2,0,0.3,0.2,0.2,0.5
		C49.6,30,49.4,30,49.2,30l-0.1,0.5c0.6,0.1,0.8-0.4,0.9-0.9C50.1,29.1,50,28.7,49.5,28.6z"/>
	<path class="st11" d="M47.2,31l1,0.2l-0.1,0.5c-0.1,0.2-0.2,0.3-0.4,0.3c-0.3,0-0.5-0.1-0.7-0.1l-0.1,0.5c0,0,0.1,0,0.2,0
		c0.1,0,0.3,0,0.5,0.1c0.2,0.1,0.4,0,0.5-0.2c0.1,0.3,0.2,0.5,0.5,0.5c0.3,0.1,0.7-0.1,0.9-0.6l0.3-1.1l-2.4-0.6L47.2,31z
		 M48.5,31.8l0.1-0.5l0.7,0.2L49.1,32c-0.1,0.2-0.2,0.4-0.4,0.3C48.5,32.3,48.4,32,48.5,31.8z"/>
	<path class="st11" d="M46.7,33l0.4,0.3l-0.3,0.8l-0.5,0l-0.2,0.5l2.6,0.1l0.2-0.7l-2.1-1.6L46.7,33z M47.5,33.6l1,0.7l-1.2-0.1
		L47.5,33.6z"/>
	<polygon class="st11" points="45.2,36.4 45.6,36.6 46.2,35.5 46.7,35.8 46.2,36.8 46.6,37 47.1,35.9 47.6,36.2 47.1,37.3 
		47.5,37.5 48.2,35.9 46,34.9 	"/>
	<polygon class="st11" points="44.2,38.2 44.5,38.5 45.2,37.4 46.9,38.5 47.2,38.1 45,36.8 	"/>
	<path class="st10" d="M11.5,45.5l-3.4,2.6l0.8,0.6l0.6-0.5l1.2,0.8l-0.3,0.8l0.9,0.6l1.3-4.1L11.5,45.5z M11,48.2l-0.8-0.6l1.5-1.2
		L11,48.2z"/>
	<polygon class="st10" points="16.7,48.5 14.7,50.7 15.1,47.7 13.8,47.1 12.1,50.9 12.9,51.3 14.2,48.6 13.8,51.6 14.6,52 
		16.6,49.8 15.4,52.4 16.3,52.8 18,49.1 	"/>
	<path class="st10" d="M19.4,49.4l-2.3,3.7l1,0.3l0.4-0.7l1.4,0.4l0,0.8l1,0.3l-0.3-4.3L19.4,49.4z M18.9,51.9l0.9-1.6l0,1.9
		L18.9,51.9z"/>
	<path class="st10" d="M24.1,50.2l-1.9-0.2l-0.3,4.1l1.8,0.2c1.2,0.1,2.1-0.7,2.2-1.9C26,51,25.1,50.3,24.1,50.2z M24.9,52.3
		c-0.1,1.1-0.7,1.2-1.2,1.2l-0.7-0.1l0.2-2.5l0.7,0.1C24.3,51,24.9,51.3,24.9,52.3z"/>
	<polygon class="st10" points="27.6,53.5 27.6,52.7 29.6,52.5 29.6,51.7 27.5,51.9 27.4,51.1 29.6,50.9 29.5,50.1 26.4,50.3 
		26.7,54.4 29.9,54.2 29.8,53.4 	"/>
	<polygon class="st10" points="31.7,53 31.5,52.2 33.5,51.7 33.3,50.9 31.3,51.4 31.1,50.6 33.2,50.1 33.1,49.3 30,50 30.9,54 
		34.1,53.3 33.9,52.5 	"/>
	<rect x="34.3" y="50.6" transform="matrix(0.937 -0.3494 0.3494 0.937 -15.5919 15.5283)" class="st10" width="1.9" height="0.8"/>
	<path class="st10" d="M38.5,50.6l0.6-1.3c0.2-0.5,0.2-0.9,0-1.3c-0.3-0.6-1.1-0.9-2-0.4c-1,0.5-1.1,1.4-0.7,2.1l0.8-0.4
		c-0.2-0.4-0.2-0.7,0.3-0.9c0.3-0.2,0.7-0.1,0.8,0.2c0.2,0.3,0.1,0.5-0.1,0.8l-0.9,2l0.4,0.7l2.7-1.4l-0.4-0.7L38.5,50.6z"/>
	<path class="st10" d="M42.6,46.6c-1-1.4-2-1.1-2.6-0.7c-0.6,0.4-1.2,1.3-0.2,2.7c1,1.4,2,1.1,2.6,0.7C43,48.8,43.6,48,42.6,46.6z
		 M42,48.6c-0.3,0.2-0.7,0.2-1.3-0.7c-0.7-0.9-0.5-1.3-0.2-1.5c0.3-0.2,0.7-0.2,1.3,0.7C42.4,48.1,42.2,48.4,42,48.6z"/>
</g>
</svg>
